<svg width="48" height="48" viewBox="0 0 48 48" fill="none" xmlns="http://www.w3.org/2000/svg">
<g clip-path="url(#clip0_2222_1090)">
<path d="M24 48C37.2548 48 48 37.2548 48 24C48 10.7452 37.2548 0 24 0C10.7452 0 0 10.7452 0 24C0 37.2548 10.7452 48 24 48Z" fill="white"/>
<path d="M47 24C47 36.7025 36.7025 47 24 47C11.2975 47 1 36.7025 1 24C1 11.2975 11.2975 1 24 1C36.7025 1 47 11.2975 47 24Z" fill="url(#paint0_linear_2222_1090)"/>
<path d="M24 20C26.2091 20 28 21.7909 28 24C28 26.2091 26.2091 28 24 28C21.7909 28 20 26.2091 20 24C20 21.7909 21.7909 20 24 20Z" fill="white"/>
<path fill-rule="evenodd" clip-rule="evenodd" d="M25 9C25.5523 9 26 9.44772 26 10V13C26 13.0621 25.9933 13.1227 25.9824 13.1816C30.462 13.9972 33.9928 17.5229 34.8154 22H38C38.5523 22 39 22.4477 39 23V25C39 25.5523 38.5523 26 38 26H34.8154C33.9928 30.477 30.4619 34.0018 25.9824 34.8174C25.9934 34.8766 26 34.9376 26 35V38C26 38.5523 25.5523 39 25 39H23C22.4477 39 22 38.5523 22 38V35C22 34.9376 22.0057 34.8766 22.0166 34.8174C17.5317 34.0004 13.9982 30.4674 13.1816 25.9824C13.1227 25.9933 13.0621 26 13 26H10C9.44772 26 9 25.5523 9 25V23C9 22.4477 9.44772 22 10 22H13C13.062 22 13.1227 22.0058 13.1816 22.0166C13.9985 17.532 17.532 13.9985 22.0166 13.1816C22.0058 13.1227 22 13.062 22 13V10C22 9.44772 22.4477 9 23 9H25ZM24 16C19.5817 16 16 19.5817 16 24C16 28.4183 19.5817 32 24 32C28.4183 32 32 28.4183 32 24C32 19.5817 28.4183 16 24 16Z" fill="white"/>
</g>
<defs>
<linearGradient id="paint0_linear_2222_1090" x1="24" y1="1" x2="24" y2="47" gradientUnits="userSpaceOnUse">
<stop stop-color="#007A7A"/>
<stop offset="1" stop-color="#007A7A" stop-opacity="0.6"/>
</linearGradient>
<clipPath id="clip0_2222_1090">
<rect width="48" height="48" fill="white"/>
</clipPath>
</defs>
</svg>
